<?xml version="1.0" encoding="utf-8"?>
<!-- Generator: Adobe Illustrator 24.0.3, SVG Export Plug-In . SVG Version: 6.00 Build 0)  -->
<svg version="1.1" id="Layer_1" xmlns="http://www.w3.org/2000/svg" xmlns:xlink="http://www.w3.org/1999/xlink" x="0px" y="0px"
	 viewBox="0 0 48 13" style="enable-background:new 0 0 48 13;" xml:space="preserve">
<title>fire txt</title>
<g id="Layer_5">
	<path d="M9.4,2.4v1.4H5.2L3.8,2.4H9.4z M5.2,6.6h4.2V8H5.2v2.8H3.8V6.6H5.2z"/>
	<path d="M17.9,8h-1.4V2.4h1.4V8z M16.5,9.4h1.4v1.4h-1.4V9.4z"/>
	<path d="M29.7,7.8l1.7,3h-1.6l-2.5-4.2h1.3c0.8,0,1.4-0.6,1.4-1.4c0-0.8-0.6-1.4-1.4-1.4h-2.8l-0.2-0.2L25,2.4h3.7
		c1.6,0,2.8,1.3,2.8,2.8c0,0.6-0.2,1.1-0.5,1.6C30.7,7.3,30.3,7.6,29.7,7.8z"/>
	<path d="M44.2,2.4v1.4H40l-1.4-1.4H44.2z M40,6h4.2v1.4h-5.6V6H40z M40,9.5h4.2v1.4h-5.6v-0.1L40,9.5z"/>
</g>
</svg>
