<svg xmlns="http://www.w3.org/2000/svg" viewBox="0 0 48 48"><defs><style>.cls-1{fill:none;}.cls-2{fill:#010101;}</style></defs><title>Rebel</title><g id="Layer_5" data-name="Layer 5"><path class="cls-1" d="M31.92,30l-3.31-4.83-2.32-6.32-.78,1.38.67,6,.59,1.31C26.82,27.61,27.75,29,31.92,30Z"/><path class="cls-1" d="M37.3,25.84a42.67,42.67,0,0,1-3.48-2.71l-1.09.42s-4.35-1.62-5.08-2L28.91,25l3.42,5Z"/><path class="cls-1" d="M14.67,14.33l7.13,4,1,1.82-.66,6,1.83.34,1.83-.34-.66-6,1-1.82,1.84-1a34,34,0,0,1-5.79-9.67L18.78,8.68l1.34,4.66Z"/><path class="cls-1" d="M32,30.33c-3.9-.94-5.12-2.15-5.41-2.52l-.83.26c-.53.18-.54.36-.55.45a.25.25,0,0,1,0,.08v.7c0,.49-.7.77-1,.86v1.25s.14.62,1.57,1.19l.6.23a15,15,0,0,0,2.37.79Z"/><polygon class="cls-1" points="41.74 3.48 41.6 3.12 29.57 8.69 28.38 12.81 41.74 3.48"/><polygon class="cls-1" points="38.85 16.8 36.54 15.71 35.88 21.88 39.03 24.14 38.85 16.8"/><path class="cls-1" d="M33.34,14.33l-5.46-1,1.35-4.66L24.16,7.12A48.3,48.3,0,0,0,30,16.2Z"/><path class="cls-1" d="M9.16,16.8,9,24.39,15.67,30l3.42-5,2.39-6.49-7.31-4.06Zm5.18,2.07a7.27,7.27,0,0,1,1-.64h0a12.13,12.13,0,0,1,2.24.33l.2.06a5.12,5.12,0,0,1,1.76.64,2.69,2.69,0,0,1,.41,1.27h0A4.05,4.05,0,0,1,20,21s0,.19-.3.62a6.63,6.63,0,0,1-.84.92h0a2.68,2.68,0,0,1-1.82.72,2.82,2.82,0,0,1-.84-.13,2.55,2.55,0,0,1-1.31-.84h0L13,20a15.1,15.1,0,0,1,1.31-1.12Z"/><path class="cls-1" d="M33.87,14.09h0l.22.1h0l.13.07,4.66,2.2.36-1v0l3.34-9.67L41.87,3.8,28.51,13.12Z"/><path class="cls-1" d="M24,36.06h0a3.87,3.87,0,0,0,1.47-.24,3.67,3.67,0,0,0,2.15-2.16c-.43-.13-.77-.26-1.42-.52l-.59-.23A3.43,3.43,0,0,1,24,31.83a3.43,3.43,0,0,1-1.62,1.08l-.59.23c-.65.26-1,.39-1.42.52A3.77,3.77,0,0,0,24,36.06Z"/><path class="cls-1" d="M16.08,30c4.19-1,5.09-2.35,5.15-2.44l.59-1.31.67-6-.78-1.38-2.32,6.32v0Z"/><path class="cls-1" d="M21.67,32.83l.59-.23c1.42-.56,1.56-1.13,1.57-1.19V30.16c-.3-.09-1-.37-1-.86v-.7a.25.25,0,0,1,0-.08c0-.09,0-.27-.55-.45l-.83-.26c-.29.37-1.51,1.58-5.41,2.52l3.26,3.29A15.09,15.09,0,0,0,21.67,32.83Z"/><path class="cls-1" d="M41.28,35.28a7.3,7.3,0,0,1-.62-.53,9.09,9.09,0,0,0-4.49-2.11l0-.16,0,.16a11.93,11.93,0,0,0-6.94,1.14l-.41.18-.05,0-.05,0-.77-.2a4.71,4.71,0,0,1-.44.84,32.38,32.38,0,0,1,7.14,2.9c.29-.07,1.63-.38,2.79-.55a7.36,7.36,0,0,1,1.67,0,7.15,7.15,0,0,0,1.46,0,3,3,0,0,0,2.15-1,3.3,3.3,0,0,1-1.44-.67Z"/><path class="cls-1" d="M37.23,26.34l-4.82,4L29.5,33.29a12.26,12.26,0,0,1,6.71-1h0a9.39,9.39,0,0,1,4.69,2.2,4.64,4.64,0,0,0,.42.37l.19-.38L43,31.58A15.52,15.52,0,0,1,39,29,5.39,5.39,0,0,1,37.23,26.34Z"/><path class="cls-1" d="M39.23,24.67l-1.71,1.42a4.9,4.9,0,0,0,1.65,2.69,16.42,16.42,0,0,0,4,2.55l.08,0c.79.49,1.44.93,1.85,1.22a21.67,21.67,0,0,1-1.5-6.08A22,22,0,0,1,39.23,24.67Z"/><path class="cls-1" d="M42.52,21.08a29.74,29.74,0,0,0-3-5.26l-.3.9.19,7.65a21.7,21.7,0,0,0,4.42,1.82h.05a16.46,16.46,0,0,0,2.41.5C44.76,25.62,43.35,23.11,42.52,21.08Z"/><path class="cls-1" d="M34.54,37.82h0a32.11,32.11,0,0,0-7.24-2.93,3.86,3.86,0,0,1-1.72,1.24,4.15,4.15,0,0,1-1.44.27H24a4.28,4.28,0,0,1-1.58-.27,3.86,3.86,0,0,1-1.72-1.24,32.11,32.11,0,0,0-7.24,2.93h0a8.85,8.85,0,0,0-2.34,1.83l8.13.48a.16.16,0,0,1,.11,0L24,44.87l4.64-4.69a.16.16,0,0,1,.11,0l8.13-.48A8.85,8.85,0,0,0,34.54,37.82Z"/><path class="cls-1" d="M10.46,26.08l-1.7-1.42L4.38,26.47a21.67,21.67,0,0,1-1.5,6.1c.41-.29,1.06-.73,1.85-1.22l.06,0a15.7,15.7,0,0,0,4-2.55A4.76,4.76,0,0,0,10.46,26.08Z"/><path class="cls-1" d="M4.19,26.19l4.44-1.83.19-7.64-.3-.9a29.12,29.12,0,0,0-3,5.26c-.83,2-2.24,4.54-3.73,5.62a16.46,16.46,0,0,0,2.41-.5Z"/><path class="cls-1" d="M20.49,34.6a4.71,4.71,0,0,1-.44-.84l-.77.2-.05,0-.05,0-.41-.18a11.93,11.93,0,0,0-6.94-1.14l0-.16,0,.16a9.09,9.09,0,0,0-4.49,2.11,7.3,7.3,0,0,1-.62.53h0a3.3,3.3,0,0,1-1.44.67,3,3,0,0,0,2.15,1,7.15,7.15,0,0,0,1.46,0,7.36,7.36,0,0,1,1.67,0c1.16.17,2.5.48,2.8.55A32.07,32.07,0,0,1,20.49,34.6Z"/><polygon class="cls-1" points="8.73 15.41 9.09 16.46 14.13 14.09 14.15 14.09 19.49 13.12 6.13 3.8 5.39 5.74 8.73 15.41 8.73 15.41"/><path class="cls-1" d="M7.11,34.51a9.33,9.33,0,0,1,4.68-2.2h0a12.26,12.26,0,0,1,6.71,1l-2.91-2.93-4.83-4A5.51,5.51,0,0,1,9,29a15.92,15.92,0,0,1-4,2.55l1.63,3.31C6.82,34.77,7,34.65,7.11,34.51Z"/><polygon class="cls-1" points="18.43 8.69 6.4 3.12 6.26 3.48 19.62 12.81 18.43 8.69"/><path class="cls-2" d="M46.12,26.45c-1-.42-2.56-2.57-3.6-5.12a24.88,24.88,0,0,0-2-3.76c-.34-.53-.64-1-.84-1.26l0-.07,3-8.82a.91.91,0,0,0,0-.65l-1-2.71a1,1,0,0,0-.54-.54,1,1,0,0,0-.35-.06,1.06,1.06,0,0,0-.4.08L28.94,8.8,24.12,7.31a1,1,0,0,0-.29,0,.9.9,0,0,0-.28,0L18.72,8.8,7.36,3.54A1.06,1.06,0,0,0,7,3.46a1.13,1.13,0,0,0-.36.06,1,1,0,0,0-.53.54L5,6.77a.91.91,0,0,0,0,.65l3.05,8.82a28.61,28.61,0,0,0-2.91,5.09c-1,2.55-2.56,4.7-3.6,5.12A.94.94,0,0,0,1,27.52a1,1,0,0,0,.93.76h0A10.89,10.89,0,0,0,3.86,28a18.75,18.75,0,0,1-1.42,4.75,1,1,0,0,0,.27,1.14.93.93,0,0,0,.6.21,1,1,0,0,0,.58-.19s.49-.37,1.27-.89L6,34.77a1,1,0,0,1-.24,0H5.68a1,1,0,0,0-.81,1.45,3.7,3.7,0,0,0,3,1.66,5.59,5.59,0,0,0,.83.06c.28,0,.53,0,.78,0l.66,0a4.12,4.12,0,0,1,.7,0l.51.08a4.52,4.52,0,0,0-.95,1.07,1,1,0,0,0,.78,1.41l7.68.46,4.28,4.33a1,1,0,0,0,1.35,0L28.79,41l7.68-.46a1,1,0,0,0,.78-1.41,4.52,4.52,0,0,0-1-1.07l.51-.08a4,4,0,0,1,.7,0l.66,0c.25,0,.5,0,.78,0a5.59,5.59,0,0,0,.83-.06,3.7,3.7,0,0,0,3-1.66,1,1,0,0,0,0-1,.93.93,0,0,0-.79-.43h-.1a1,1,0,0,1-.23,0l.85-1.72c.78.52,1.27.88,1.27.89a1,1,0,0,0,.58.19.91.91,0,0,0,.59-.21.93.93,0,0,0,.27-1.14A19,19,0,0,1,43.81,28a10.79,10.79,0,0,0,1.94.25h0a.95.95,0,0,0,.35-1.83ZM41.59,7.12,38.4,16.34v0l-.34,1-4.45-2.09-.12-.07h0l-.21-.1h0l-5.11-.92L40.87,5.27ZM19.15,25.47l-3.26,4.77-6.4-5.33.19-7.25,4.78-2.25,7,3.88Zm2.5-5.87.74,1.31-.63,5.74-.57,1.25c-.05.08-.91,1.35-4.91,2.33l3.15-4.59v0Zm-.26,8.56.8.26c.5.16.51.34.52.42a.25.25,0,0,0,0,.08v.67c0,.46.67.73,1,.82V31.6s-.15.6-1.5,1.13l-.57.22a12.74,12.74,0,0,1-2.26.75l-3.12-3.13C20,29.67,21.11,28.52,21.39,28.16Zm.34,5.09.56-.23a3.23,3.23,0,0,0,1.54-1,3.34,3.34,0,0,0,1.55,1l.56.23c.62.24.95.37,1.35.5a3.52,3.52,0,0,1-2,2,3.63,3.63,0,0,1-1.4.23h0a3.55,3.55,0,0,1-3.44-2.28C20.78,33.62,21.11,33.49,21.73,33.25Zm4.33-.3-.57-.22C24.13,32.19,24,31.64,24,31.6V30.41c.29-.09,1-.36,1-.82v-.67a.25.25,0,0,0,0-.08c0-.08,0-.26.52-.42l.79-.26c.29.36,1.45,1.51,5.17,2.41L28.32,33.7A12.74,12.74,0,0,1,26.06,33Zm-.15-6.3-.63-5.74L26,19.6l2.21,6,3.15,4.61c-4-1-4.85-2.25-4.9-2.33Zm2.61-1.18L27.31,22.2c.7.36,4.85,1.9,4.85,1.9l1-.4c1.61,1.38,2.86,2.27,3.32,2.59l-4.74,3.95Zm6.64-3,.63-5.88,2.2,1,.18,7Zm-6-12.58L40.62,4.62l.13.35L28,13.86Zm-.33,0-1.29,4.45,5.21.94-3.2,1.78A45.62,45.62,0,0,1,24,8.43Zm-6.66-1a32.55,32.55,0,0,0,5.52,9.22l-1.75,1-1,1.74.63,5.73-1.75.31-1.74-.31.63-5.73-1-1.74-6.81-3.79,5.21-.94L18.85,9.92ZM7.05,4.62,18.52,9.93l1.14,3.93L6.91,5Zm-1,2.5L6.8,5.27l12.73,8.89-5.09.92h0L9.61,17.34l-.34-1h0Zm-3.47,20c1.43-1,2.78-3.43,3.57-5.36a27.47,27.47,0,0,1,2.89-5l.29.85-.18,7.29L4.94,26.62h0A15.91,15.91,0,0,1,2.61,27.11Zm2.85,4.43c-.76.47-1.38.89-1.77,1.17a20.32,20.32,0,0,0,1.43-5.82L9.3,25.16l1.62,1.35a4.5,4.5,0,0,1-1.57,2.58,15.23,15.23,0,0,1-3.83,2.43Zm.3.22a15,15,0,0,0,3.8-2.44,5.1,5.1,0,0,0,1.64-2.57l4.61,3.84,2.78,2.8a11.67,11.67,0,0,0-6.4-.93h0a8.94,8.94,0,0,0-4.47,2.09c-.13.13-.27.25-.4.36ZM11,36.88a7.19,7.19,0,0,0-1.59,0,7.36,7.36,0,0,1-1.4,0,2.88,2.88,0,0,1-2-.91,3.2,3.2,0,0,0,1.38-.64h0a6.29,6.29,0,0,0,.59-.5,8.7,8.7,0,0,1,4.28-2l0-.16,0,.16a11.34,11.34,0,0,1,6.62,1.09l.39.17,0,0,.06,0,.73-.19a4,4,0,0,0,.42.8,31.18,31.18,0,0,0-6.81,2.76C13.4,37.34,12.12,37,11,36.88Zm17.34,3a.13.13,0,0,0-.1,0l-4.43,4.47L19.41,40a.14.14,0,0,0-.1,0l-7.76-.47a8.66,8.66,0,0,1,2.23-1.74h0a29.88,29.88,0,0,1,6.9-2.79,3.65,3.65,0,0,0,1.64,1.18,3.89,3.89,0,0,0,1.5.25H24a3.94,3.94,0,0,0,1.38-.26A3.65,3.65,0,0,0,27,34.92a29.88,29.88,0,0,1,6.9,2.79h0a8.66,8.66,0,0,1,2.23,1.74Zm13.33-4a2.88,2.88,0,0,1-2,.91,7.36,7.36,0,0,1-1.4,0,7.19,7.19,0,0,0-1.59,0c-1.1.16-2.38.46-2.66.52a31.18,31.18,0,0,0-6.81-2.76,4,4,0,0,0,.42-.8l.73.19.06,0,0,0,.39-.17a11.32,11.32,0,0,1,6.62-1.09l0-.16,0,.16a8.7,8.7,0,0,1,4.28,2,6.29,6.29,0,0,0,.59.5h0A3.15,3.15,0,0,0,41.69,35.92Zm-1.16-1.38-.18.37a4.48,4.48,0,0,1-.4-.36,8.94,8.94,0,0,0-4.47-2.09h0a11.67,11.67,0,0,0-6.4.93l2.78-2.8,4.59-3.83a5.16,5.16,0,0,0,1.64,2.56,14.76,14.76,0,0,0,3.82,2.44ZM44,32.71c-.4-.28-1-.7-1.77-1.17l-.07,0a15.28,15.28,0,0,1-3.84-2.43,4.59,4.59,0,0,1-1.57-2.56l1.63-1.36a21,21,0,0,0,4.19,1.73A20.28,20.28,0,0,0,44,32.71Zm-1.23-6.08h0a20.56,20.56,0,0,1-4.22-1.74l-.18-7.3.29-.85a28.07,28.07,0,0,1,2.89,5c.79,1.93,2.14,4.33,3.57,5.36A15.91,15.91,0,0,1,42.75,26.63Z"/><path d="M14.85,22.29h0a2.55,2.55,0,0,0,1.31.84,2.82,2.82,0,0,0,.84.13,2.68,2.68,0,0,0,1.82-.72h0a6.63,6.63,0,0,0,.84-.92c.31-.43.3-.62.3-.62a4.05,4.05,0,0,0,0-.45h0a2.69,2.69,0,0,0-.41-1.27,5.12,5.12,0,0,0-1.76-.64l-.2-.06a12.13,12.13,0,0,0-2.24-.33h0a7.27,7.27,0,0,0-1,.64h0A15.1,15.1,0,0,0,13,20Zm2.2-3.09a1.21,1.21,0,1,1-1.21,1.21A1.21,1.21,0,0,1,17.05,19.2Z"/></g></svg>